# Blender 4.1.1
# www.blender.org
mtllib playerAbove.mtl
o ShootingStand
v -0.100000 -0.025805 -0.594802
v -0.098079 -0.046400 -0.594802
v -0.100000 -0.025806 -2.577988
v -0.098079 -0.005211 -0.594802
v -0.092388 0.014593 -0.594802
v -0.098079 -0.005211 -2.577988
v -0.092388 0.014593 -2.577988
v -0.083147 0.032843 -2.577988
v -0.070711 0.048840 -2.577988
v -0.083147 0.032843 -0.594802
v -0.070711 0.048841 -0.594802
v -0.055557 0.061969 -0.594802
v -0.038268 0.071724 -0.594802
v -0.055557 0.061969 -2.577988
v -0.038268 0.071724 -2.577988
v -0.019509 0.077731 -2.577988
v -0.000000 0.079760 -2.577988
v -0.019509 0.077731 -0.594802
v -0.000000 0.079760 -0.594802
v 0.019509 0.077731 -0.594802
v 0.038268 0.071724 -0.594802
v 0.019509 0.077731 -2.577988
v 0.038268 0.071724 -2.577988
v 0.055557 0.061969 -2.577988
v 0.070711 0.048840 -2.577988
v 0.055557 0.061969 -0.594802
v 0.070711 0.048841 -0.594802
v 0.083147 0.032843 -0.594802
v 0.092388 0.014593 -0.594802
v 0.083147 0.032843 -2.577988
v 0.092388 0.014593 -2.577988
v 0.098079 -0.005211 -2.577988
v 0.100000 -0.025806 -2.577988
v 0.098079 -0.005211 -0.594802
v 0.100000 -0.025805 -0.594802
v 0.098079 -0.046400 -0.594802
v 0.092388 -0.066204 -0.594802
v 0.098079 -0.046400 -2.577988
v 0.092388 -0.066204 -2.577988
v 0.083147 -0.084455 -2.577988
v 0.070711 -0.100451 -2.577988
v 0.083147 -0.084454 -0.594802
v 0.070711 -0.100451 -0.594802
v 0.055557 -0.113580 -0.594802
v 0.038268 -0.123335 -0.594802
v 0.055557 -0.113580 -2.577988
v 0.038268 -0.123335 -2.577988
v 0.019509 -0.129342 -2.577988
v -0.000000 -0.131371 -2.577988
v 0.019509 -0.129342 -0.594802
v -0.000000 -0.131371 -0.594802
v -0.019509 -0.129342 -0.594802
v -0.038268 -0.123335 -0.594802
v -0.019509 -0.129342 -2.577988
v -0.038268 -0.123335 -2.577988
v -0.055557 -0.113580 -2.577988
v -0.070711 -0.100451 -2.577988
v -0.055557 -0.113580 -0.594802
v -0.070711 -0.100451 -0.594802
v -0.083147 -0.084454 -0.594802
v -0.092388 -0.066204 -0.594802
v -0.083147 -0.084455 -2.577988
v -0.092388 -0.066204 -2.577988
v -0.098079 -0.046400 -2.577988
v 0.773886 -0.207559 0.879086
v 0.773886 0.178933 0.879086
v -0.773886 -0.207559 0.879086
v -0.773886 0.178933 0.879086
v 0.773886 -0.207559 -0.839155
v 0.773886 0.178933 -0.839155
v -0.773886 -0.207559 -0.839155
v -0.773886 0.178933 -0.839155
v 0.421118 0.150099 0.444393
v -0.421118 0.150099 0.444393
v 0.421118 0.291418 0.444393
v 0.421118 0.150099 -0.424658
v -0.421118 0.150099 -0.424658
v 0.421118 0.291418 -0.424658
v -0.421118 0.291418 -0.424658
v -0.421118 0.291418 0.444393
vn -0.0000 -0.0000 1.0000
vn -0.9957 -0.0929 -0.0000
vn -0.9957 0.0929 -0.0000
vn -0.9611 0.2762 -0.0000
vn -0.0000 -0.0000 -1.0000
vn -0.8922 0.4517 -0.0000
vn -0.7895 0.6138 -0.0000
vn -0.6548 0.7558 -0.0000
vn -0.4914 0.8709 -0.0000
vn -0.3050 0.9524 -0.0000
vn -0.1034 0.9946 -0.0000
vn 0.1034 0.9946 -0.0000
vn 0.3050 0.9524 -0.0000
vn 0.4914 0.8709 -0.0000
vn 0.6548 0.7558 -0.0000
vn 0.7895 0.6138 -0.0000
vn 0.8922 0.4517 -0.0000
vn 0.9611 0.2762 -0.0000
vn 0.9957 0.0929 -0.0000
vn 0.9957 -0.0929 -0.0000
vn 0.9611 -0.2762 -0.0000
vn 0.8922 -0.4517 -0.0000
vn 0.7895 -0.6138 -0.0000
vn 0.6548 -0.7558 -0.0000
vn 0.4914 -0.8709 -0.0000
vn 0.3050 -0.9524 -0.0000
vn 0.1034 -0.9946 -0.0000
vn -0.1034 -0.9946 -0.0000
vn -0.3050 -0.9524 -0.0000
vn -0.4914 -0.8709 -0.0000
vn -0.6548 -0.7558 -0.0000
vn -0.7895 -0.6138 -0.0000
vn -0.8922 -0.4517 -0.0000
vn -0.9611 -0.2762 -0.0000
vn -1.0000 -0.0000 -0.0000
vn 1.0000 -0.0000 -0.0000
vn -0.0000 -1.0000 -0.0000
vn -0.0000 1.0000 -0.0000
vt 0.115190 0.019553
vt 0.108980 0.031739
vt 0.097362 0.025068
vt 0.254629 0.851616
vt 0.252703 0.666974
vt 0.254629 0.666974
vt 0.196514 0.851616
vt 0.194588 0.666974
vt 0.196514 0.666974
vt 0.198432 0.851616
vt 0.198432 0.666974
vt 0.013912 0.130103
vt 0.020122 0.117785
vt 0.031740 0.124211
vt 0.200337 0.851616
vt 0.200337 0.666974
vt 0.202223 0.851616
vt 0.202223 0.666974
vt 0.204090 0.851616
vt 0.204090 0.666974
vt 0.205938 0.851616
vt 0.205938 0.666974
vt 0.207772 0.666974
vt 0.209598 0.851616
vt 0.209598 0.666974
vt 0.211424 0.851616
vt 0.211424 0.666974
vt 0.213258 0.851616
vt 0.213258 0.666974
vt 0.215107 0.666974
vt 0.216973 0.851616
vt 0.216973 0.666974
vt 0.218860 0.851616
vt 0.218860 0.666974
vt 0.220764 0.851616
vt 0.220764 0.666974
vt 0.222683 0.851616
vt 0.222683 0.666974
vt 0.224609 0.851616
vt 0.224609 0.666974
vt 0.226534 0.851616
vt 0.226534 0.666974
vt 0.228453 0.851616
vt 0.228453 0.666974
vt 0.230357 0.851616
vt 0.230357 0.666974
vt 0.232244 0.851616
vt 0.232244 0.666974
vt 0.234111 0.851616
vt 0.234111 0.666974
vt 0.235959 0.851616
vt 0.235959 0.666974
vt 0.237793 0.851616
vt 0.237793 0.666974
vt 0.239619 0.666974
vt 0.241445 0.851616
vt 0.241445 0.666974
vt 0.243279 0.851616
vt 0.243279 0.666974
vt 0.245127 0.851616
vt 0.245127 0.666974
vt 0.246994 0.851616
vt 0.246994 0.666974
vt 0.248880 0.851616
vt 0.248880 0.666974
vt 0.250785 0.851616
vt 0.250785 0.666974
vt 0.252703 0.851616
vt 0.930787 0.122022
vt 0.803446 0.198474
vt 0.905342 0.096578
vt 0.828890 0.223918
vt 0.690327 0.311593
vt 0.715771 0.337037
vt 0.588431 0.413489
vt 0.613875 0.438934
vt 0.475312 0.526608
vt 0.475312 0.300370
vt 0.577208 0.198474
vt 0.828890 0.450156
vt 0.223278 0.599872
vt 0.335939 0.601637
vt 0.280491 0.657085
vt 0.101313 0.703230
vt 0.166065 0.657085
vt 0.110617 0.712533
vt 0.269422 0.535120
vt 0.335939 0.487211
vt 0.278726 0.544424
vt 0.213974 0.590568
vt 0.156761 0.533355
vt 0.156761 0.647782
vt 0.097006 0.023175
vt 0.097006 0.021249
vt 0.097362 0.019364
vt 0.098061 0.017592
vt 0.099075 0.016002
vt 0.100366 0.014654
vt 0.101885 0.013600
vt 0.103572 0.012881
vt 0.105363 0.012524
vt 0.107189 0.012543
vt 0.108980 0.012938
vt 0.110667 0.013693
vt 0.112185 0.014779
vt 0.113476 0.016154
vt 0.114491 0.017766
vt 0.115546 0.021445
vt 0.115546 0.023371
vt 0.115190 0.025256
vt 0.114491 0.027028
vt 0.113476 0.028618
vt 0.112185 0.029966
vt 0.110667 0.031020
vt 0.107189 0.032096
vt 0.105363 0.032077
vt 0.103572 0.031682
vt 0.101885 0.030927
vt 0.100366 0.029841
vt 0.099075 0.028466
vt 0.098061 0.026854
vt 0.194588 0.851616
vt 0.032096 0.126096
vt 0.032096 0.128022
vt 0.031740 0.129915
vt 0.031041 0.131701
vt 0.030026 0.133313
vt 0.028735 0.134689
vt 0.027217 0.135775
vt 0.025530 0.136529
vt 0.023739 0.136924
vt 0.021913 0.136943
vt 0.020122 0.136587
vt 0.018435 0.135867
vt 0.016917 0.134814
vt 0.015625 0.133465
vt 0.014611 0.131875
vt 0.013556 0.128218
vt 0.013556 0.126292
vt 0.013912 0.124400
vt 0.014611 0.122613
vt 0.015625 0.121001
vt 0.016917 0.119626
vt 0.018435 0.118540
vt 0.021913 0.117391
vt 0.023739 0.117371
vt 0.025530 0.117728
vt 0.027217 0.118447
vt 0.028735 0.119501
vt 0.030027 0.120849
vt 0.031041 0.122440
vt 0.207772 0.851616
vt 0.215107 0.851616
vt 0.239619 0.851616
vt 0.500756 0.552053
vt 0.726994 0.552053
vt 0.326635 0.477907
vt 0.212209 0.477907
s 0
usemtl material
f 36/1/1 20/2/1 4/3/1
f 3/4/2 2/5/2 1/6/2
f 6/7/3 1/8/3 4/9/3
f 7/10/4 4/9/4 5/11/4
f 31/12/5 47/13/5 63/14/5
f 8/15/6 5/11/6 10/16/6
f 9/17/7 10/16/7 11/18/7
f 14/19/8 11/18/8 12/20/8
f 15/21/9 12/20/9 13/22/9
f 18/23/10 15/21/10 13/22/10
f 17/24/11 18/23/11 19/25/11
f 22/26/12 19/25/12 20/27/12
f 23/28/13 20/27/13 21/29/13
f 26/30/14 23/28/14 21/29/14
f 25/31/15 26/30/15 27/32/15
f 30/33/16 27/32/16 28/34/16
f 31/35/17 28/34/17 29/36/17
f 32/37/18 29/36/18 34/38/18
f 33/39/19 34/38/19 35/40/19
f 38/41/20 35/40/20 36/42/20
f 39/43/21 36/42/21 37/44/21
f 40/45/22 37/44/22 42/46/22
f 41/47/23 42/46/23 43/48/23
f 46/49/24 43/48/24 44/50/24
f 47/51/25 44/50/25 45/52/25
f 48/53/26 45/52/26 50/54/26
f 51/55/27 48/53/27 50/54/27
f 54/56/28 51/55/28 52/57/28
f 55/58/29 52/57/29 53/59/29
f 56/60/30 53/59/30 58/61/30
f 57/62/31 58/61/31 59/63/31
f 62/64/32 59/63/32 60/65/32
f 63/66/33 60/65/33 61/67/33
f 64/68/34 61/67/34 2/5/34
f 66/69/1 67/70/1 65/71/1
f 68/72/35 71/73/35 67/70/35
f 72/74/5 69/75/5 71/73/5
f 70/76/36 65/77/36 69/75/36
f 71/73/37 65/78/37 67/79/37
f 68/80/38 70/76/38 72/74/38
f 77/81/37 73/82/37 74/83/37
f 75/84/1 74/85/1 73/86/1
f 78/87/36 73/88/36 76/89/36
f 79/90/5 76/89/5 77/81/5
f 80/91/38 78/87/38 79/90/38
f 80/92/35 77/81/35 74/85/35
f 4/3/1 1/93/1 2/94/1
f 2/94/1 61/95/1 60/96/1
f 60/96/1 59/97/1 58/98/1
f 58/98/1 53/99/1 52/100/1
f 52/100/1 51/101/1 50/102/1
f 50/102/1 45/103/1 44/104/1
f 44/104/1 43/105/1 42/106/1
f 42/106/1 37/107/1 36/1/1
f 36/1/1 35/108/1 34/109/1
f 34/109/1 29/110/1 28/111/1
f 28/111/1 27/112/1 26/113/1
f 26/113/1 21/114/1 20/2/1
f 20/2/1 19/115/1 18/116/1
f 18/116/1 13/117/1 12/118/1
f 12/118/1 11/119/1 10/120/1
f 10/120/1 5/121/1 4/3/1
f 4/3/1 2/94/1 60/96/1
f 60/96/1 58/98/1 52/100/1
f 52/100/1 50/102/1 44/104/1
f 44/104/1 42/106/1 36/1/1
f 36/1/1 34/109/1 28/111/1
f 28/111/1 26/113/1 20/2/1
f 20/2/1 18/116/1 12/118/1
f 12/118/1 10/120/1 4/3/1
f 4/3/1 60/96/1 52/100/1
f 52/100/1 44/104/1 36/1/1
f 36/1/1 28/111/1 20/2/1
f 20/2/1 12/118/1 4/3/1
f 4/3/1 52/100/1 36/1/1
f 3/4/2 64/68/2 2/5/2
f 6/7/3 3/122/3 1/8/3
f 7/10/4 6/7/4 4/9/4
f 63/14/5 64/123/5 3/124/5
f 3/124/5 6/125/5 7/126/5
f 7/126/5 8/127/5 9/128/5
f 9/128/5 14/129/5 15/130/5
f 15/130/5 16/131/5 17/132/5
f 17/132/5 22/133/5 23/134/5
f 23/134/5 24/135/5 25/136/5
f 25/136/5 30/137/5 31/12/5
f 31/12/5 32/138/5 33/139/5
f 33/139/5 38/140/5 39/141/5
f 39/141/5 40/142/5 41/143/5
f 41/143/5 46/144/5 47/13/5
f 47/13/5 48/145/5 49/146/5
f 49/146/5 54/147/5 55/148/5
f 55/148/5 56/149/5 57/150/5
f 57/150/5 62/151/5 63/14/5
f 63/14/5 3/124/5 7/126/5
f 7/126/5 9/128/5 15/130/5
f 15/130/5 17/132/5 23/134/5
f 23/134/5 25/136/5 31/12/5
f 31/12/5 33/139/5 39/141/5
f 39/141/5 41/143/5 47/13/5
f 47/13/5 49/146/5 55/148/5
f 55/148/5 57/150/5 63/14/5
f 63/14/5 7/126/5 15/130/5
f 15/130/5 23/134/5 31/12/5
f 31/12/5 39/141/5 47/13/5
f 47/13/5 55/148/5 63/14/5
f 63/14/5 15/130/5 31/12/5
f 8/15/6 7/10/6 5/11/6
f 9/17/7 8/15/7 10/16/7
f 14/19/8 9/17/8 11/18/8
f 15/21/9 14/19/9 12/20/9
f 18/23/10 16/152/10 15/21/10
f 17/24/11 16/152/11 18/23/11
f 22/26/12 17/24/12 19/25/12
f 23/28/13 22/26/13 20/27/13
f 26/30/14 24/153/14 23/28/14
f 25/31/15 24/153/15 26/30/15
f 30/33/16 25/31/16 27/32/16
f 31/35/17 30/33/17 28/34/17
f 32/37/18 31/35/18 29/36/18
f 33/39/19 32/37/19 34/38/19
f 38/41/20 33/39/20 35/40/20
f 39/43/21 38/41/21 36/42/21
f 40/45/22 39/43/22 37/44/22
f 41/47/23 40/45/23 42/46/23
f 46/49/24 41/47/24 43/48/24
f 47/51/25 46/49/25 44/50/25
f 48/53/26 47/51/26 45/52/26
f 51/55/27 49/154/27 48/53/27
f 54/56/28 49/154/28 51/55/28
f 55/58/29 54/56/29 52/57/29
f 56/60/30 55/58/30 53/59/30
f 57/62/31 56/60/31 58/61/31
f 62/64/32 57/62/32 59/63/32
f 63/66/33 62/64/33 60/65/33
f 64/68/34 63/66/34 61/67/34
f 66/69/1 68/72/1 67/70/1
f 68/72/35 72/74/35 71/73/35
f 72/74/5 70/76/5 69/75/5
f 70/76/36 66/155/36 65/77/36
f 71/73/37 69/75/37 65/78/37
f 68/80/38 66/156/38 70/76/38
f 77/81/37 76/89/37 73/82/37
f 75/84/1 80/92/1 74/85/1
f 78/87/36 75/157/36 73/88/36
f 79/90/5 78/87/5 76/89/5
f 80/91/38 75/158/38 78/87/38
f 80/92/35 79/90/35 77/81/35
