# Blender 4.1.1
# www.blender.org
mtllib playerUnder.mtl
o Vehicle
v 0.422665 -0.029385 -1.318633
v 0.977335 -0.029385 -1.318633
v 0.422665 -0.087242 -1.293296
v 0.977335 -0.087242 -1.293296
v 0.422665 -0.142875 -1.218258
v 0.977335 -0.142875 -1.218258
v 0.422665 -0.194148 -1.096403
v 0.977335 -0.194148 -1.096403
v 0.422665 -0.239088 -0.932414
v 0.977335 -0.239088 -0.932414
v 0.422665 -0.275970 -0.732593
v 0.977335 -0.275970 -0.732593
v 0.422665 -0.303376 -0.504619
v 0.977335 -0.303376 -0.504619
v 0.422665 -0.320252 -0.257253
v 0.977335 -0.320252 -0.257253
v 0.422665 -0.325951 -0.000000
v 0.977335 -0.325951 -0.000000
v 0.422665 -0.320252 0.257253
v 0.977335 -0.320252 0.257253
v 0.422665 -0.303376 0.504619
v 0.977335 -0.303376 0.504619
v 0.422665 -0.275970 0.732593
v 0.977335 -0.275970 0.732593
v 0.422665 -0.239088 0.932414
v 0.977335 -0.239088 0.932414
v 0.422665 -0.194148 1.096403
v 0.977335 -0.194148 1.096403
v 0.422665 -0.142876 1.218258
v 0.977335 -0.142876 1.218258
v 0.422665 -0.087242 1.293296
v 0.977335 -0.087242 1.293296
v 0.422665 -0.029385 1.318633
v 0.977335 -0.029385 1.318633
v 0.422665 0.028472 1.293296
v 0.977335 0.028472 1.293296
v 0.422665 0.084106 1.218258
v 0.977335 0.084106 1.218258
v 0.422665 0.135378 1.096403
v 0.977335 0.135378 1.096403
v 0.422665 0.180319 0.932414
v 0.977335 0.180319 0.932414
v 0.422665 0.217201 0.732593
v 0.977335 0.217201 0.732593
v 0.422665 0.244606 0.504619
v 0.977335 0.244606 0.504619
v 0.422665 0.261483 0.257253
v 0.977335 0.261483 0.257253
v 0.422665 0.267181 0.000000
v 0.977335 0.267181 0.000000
v 0.422665 0.261483 -0.257252
v 0.977335 0.261483 -0.257252
v 0.422665 0.244607 -0.504619
v 0.977335 0.244607 -0.504619
v 0.422665 0.217201 -0.732593
v 0.977335 0.217201 -0.732593
v 0.422665 0.180319 -0.932414
v 0.977335 0.180319 -0.932414
v 0.422665 0.135379 -1.096403
v 0.977335 0.135379 -1.096403
v 0.422665 0.084106 -1.218258
v 0.977335 0.084106 -1.218258
v 0.422665 0.028473 -1.293296
v 0.977335 0.028473 -1.293296
v -0.977335 -0.029384 -1.318633
v -0.977335 -0.087242 -1.293296
v -0.422665 -0.029384 -1.318633
v -0.977335 0.028473 -1.293296
v -0.977335 0.084106 -1.218258
v -0.422665 0.028473 -1.293296
v -0.422665 0.084106 -1.218258
v -0.422665 0.135379 -1.096403
v -0.422665 0.180319 -0.932414
v -0.977335 0.135379 -1.096403
v -0.977335 0.180319 -0.932414
v -0.977335 0.217201 -0.732593
v -0.977335 0.244607 -0.504619
v -0.422665 0.217201 -0.732593
v -0.422665 0.244607 -0.504619
v -0.422665 0.261483 -0.257252
v -0.422665 0.267181 0.000000
v -0.977335 0.261483 -0.257252
v -0.977335 0.267181 0.000000
v -0.977335 0.261483 0.257253
v -0.977335 0.244607 0.504619
v -0.422665 0.261483 0.257253
v -0.422665 0.244607 0.504619
v -0.422665 0.217201 0.732593
v -0.422665 0.180319 0.932414
v -0.977335 0.217201 0.732593
v -0.977335 0.180319 0.932414
v -0.977335 0.135379 1.096403
v -0.977335 0.084106 1.218258
v -0.422665 0.135379 1.096403
v -0.422665 0.084106 1.218258
v -0.422665 0.028472 1.293296
v -0.422665 -0.029385 1.318633
v -0.977335 0.028472 1.293296
v -0.977335 -0.029385 1.318633
v -0.977335 -0.087242 1.293296
v -0.977335 -0.142876 1.218258
v -0.422665 -0.087242 1.293296
v -0.422665 -0.142876 1.218258
v -0.422665 -0.194148 1.096403
v -0.422665 -0.239088 0.932414
v -0.977335 -0.194148 1.096403
v -0.977335 -0.239088 0.932414
v -0.977335 -0.275970 0.732593
v -0.977335 -0.303376 0.504619
v -0.422665 -0.275970 0.732593
v -0.422665 -0.303376 0.504619
v -0.422665 -0.320252 0.257253
v -0.422665 -0.325951 -0.000000
v -0.977335 -0.320252 0.257253
v -0.977335 -0.325951 -0.000000
v -0.977335 -0.320252 -0.257253
v -0.977335 -0.303376 -0.504619
v -0.422665 -0.320252 -0.257253
v -0.422665 -0.303376 -0.504619
v -0.422665 -0.275970 -0.732593
v -0.422665 -0.239088 -0.932414
v -0.977335 -0.275970 -0.732593
v -0.977335 -0.239088 -0.932414
v -0.977335 -0.194148 -1.096403
v -0.977335 -0.142875 -1.218258
v -0.422665 -0.194148 -1.096403
v -0.422665 -0.142875 -1.218258
v -0.422665 -0.087242 -1.293296
v 1.018142 0.118696 1.458916
v -1.018142 0.118696 1.458916
v 1.018142 0.821611 1.269456
v 1.018142 0.118696 -1.458916
v -1.018142 0.118696 -1.458916
v 1.018142 0.821611 -1.269456
v -1.018142 0.821611 -1.269456
v -1.018142 0.821611 1.269456
vn -0.0000 -0.4011 -0.9160
vn -0.0000 -0.8033 -0.5956
vn -0.0000 -0.9217 -0.3878
vn -0.0000 -0.9644 -0.2643
vn -0.0000 -0.9834 -0.1815
vn -0.0000 -0.9929 -0.1194
vn -0.0000 -0.9977 -0.0681
vn -0.0000 -0.9998 -0.0221
vn -0.0000 -0.9998 0.0221
vn -0.0000 -0.9977 0.0681
vn -0.0000 -0.9929 0.1194
vn -0.0000 -0.9834 0.1815
vn -0.0000 -0.9644 0.2643
vn -0.0000 -0.9217 0.3878
vn -0.0000 -0.8033 0.5956
vn -0.0000 -0.4011 0.9160
vn -0.0000 0.4011 0.9160
vn -0.0000 0.8033 0.5956
vn -0.0000 0.9217 0.3878
vn -0.0000 0.9644 0.2643
vn -0.0000 0.9834 0.1815
vn -0.0000 0.9929 0.1194
vn -0.0000 0.9977 0.0681
vn -0.0000 0.9998 0.0221
vn -0.0000 0.9998 -0.0221
vn -0.0000 0.9977 -0.0681
vn -0.0000 0.9929 -0.1194
vn -0.0000 0.9834 -0.1815
vn -0.0000 0.9644 -0.2643
vn -0.0000 0.9217 -0.3878
vn 1.0000 -0.0000 -0.0000
vn -0.0000 0.8033 -0.5956
vn -0.0000 0.4011 -0.9160
vn -1.0000 -0.0000 -0.0000
vn -0.0000 -1.0000 -0.0000
vn -0.0000 0.2602 0.9655
vn -0.0000 0.2602 -0.9655
vn -0.0000 1.0000 -0.0000
vt 0.012550 0.988560
vt 0.064192 0.982679
vt 0.064192 0.988560
vt 0.012550 0.982679
vt 0.064192 0.973982
vt 0.012550 0.973982
vt 0.064192 0.961674
vt 0.012550 0.961674
vt 0.064192 0.945843
vt 0.012550 0.945843
vt 0.064192 0.926924
vt 0.012550 0.905546
vt 0.064192 0.905546
vt 0.064192 0.882462
vt 0.012550 0.882462
vt 0.064192 0.858505
vt 0.012550 0.858505
vt 0.064192 0.834548
vt 0.012550 0.834548
vt 0.064192 0.811464
vt 0.012550 0.811464
vt 0.064192 0.790086
vt 0.012550 0.790086
vt 0.064192 0.771167
vt 0.012550 0.771167
vt 0.064192 0.755337
vt 0.012550 0.755337
vt 0.064192 0.743028
vt 0.012550 0.743028
vt 0.064192 0.734331
vt 0.012550 0.734331
vt 0.064192 0.728450
vt 0.012550 0.728450
vt 0.064192 0.722570
vt 0.012550 0.722570
vt 0.064192 0.713873
vt 0.012550 0.713873
vt 0.064192 0.701564
vt 0.012550 0.701564
vt 0.064192 0.685733
vt 0.012550 0.685733
vt 0.064192 0.666815
vt 0.012550 0.666815
vt 0.064192 0.645437
vt 0.012550 0.645437
vt 0.064192 0.622353
vt 0.012550 0.622353
vt 0.064192 0.598396
vt 0.012550 0.598396
vt 0.064192 0.574439
vt 0.012550 0.574439
vt 0.064192 0.551355
vt 0.012550 0.551355
vt 0.064192 0.529977
vt 0.012550 0.529977
vt 0.064192 0.511058
vt 0.012550 0.511058
vt 0.064192 0.495227
vt 0.012550 0.495227
vt 0.064192 0.482919
vt 0.603381 0.485190
vt 0.640920 0.550818
vt 0.629533 0.711515
vt 0.012550 0.482919
vt 0.064192 0.474222
vt 0.012550 0.474222
vt 0.064192 0.468341
vt 0.368826 0.864355
vt 0.338503 0.767201
vt 0.363389 0.623355
vt 0.679088 0.256669
vt 0.648765 0.159515
vt 0.673651 0.015669
vt 0.857747 0.751049
vt 0.909389 0.745168
vt 0.909389 0.751049
vt 0.857747 0.236711
vt 0.909389 0.230830
vt 0.909389 0.236711
vt 0.857747 0.245408
vt 0.909389 0.245408
vt 0.758187 0.559613
vt 0.792783 0.626838
vt 0.774291 0.786874
vt 0.857747 0.257716
vt 0.909389 0.257716
vt 0.857747 0.273547
vt 0.909389 0.273547
vt 0.909389 0.292465
vt 0.857747 0.313844
vt 0.909389 0.313844
vt 0.857747 0.336928
vt 0.909389 0.336928
vt 0.857747 0.360885
vt 0.909389 0.360885
vt 0.857747 0.384842
vt 0.909389 0.384842
vt 0.857747 0.407926
vt 0.909389 0.407926
vt 0.857747 0.429304
vt 0.909389 0.429304
vt 0.857747 0.448222
vt 0.909389 0.448222
vt 0.857747 0.464053
vt 0.909389 0.464053
vt 0.857747 0.476362
vt 0.909389 0.476362
vt 0.857747 0.485059
vt 0.909389 0.485059
vt 0.857747 0.490939
vt 0.909389 0.490939
vt 0.857747 0.496820
vt 0.909389 0.496820
vt 0.857747 0.505517
vt 0.909389 0.505517
vt 0.857747 0.517825
vt 0.909389 0.517825
vt 0.909389 0.533656
vt 0.857747 0.552575
vt 0.909389 0.552575
vt 0.857747 0.573953
vt 0.909389 0.573953
vt 0.857747 0.597037
vt 0.909389 0.597037
vt 0.857747 0.620994
vt 0.909389 0.620994
vt 0.857747 0.644951
vt 0.909389 0.644951
vt 0.909389 0.668035
vt 0.909389 0.689413
vt 0.857747 0.668035
vt 0.857747 0.708332
vt 0.909389 0.708332
vt 0.857747 0.724163
vt 0.909389 0.724163
vt 0.857747 0.736471
vt 0.909389 0.736471
vt 0.857747 0.745168
vt 0.584149 0.162574
vt 0.253203 0.177298
vt 0.468848 0.012081
vt 0.428726 0.775656
vt 0.471907 0.579003
vt 0.495958 0.767057
vt 0.199399 0.218520
vt 0.037557 0.012081
vt 0.314700 0.369013
vt 0.368504 0.327791
vt 0.011758 0.362281
vt 0.404675 0.587602
vt 0.012550 0.926924
vt 0.624509 0.718614
vt 0.619176 0.721092
vt 0.613738 0.718853
vt 0.608405 0.711983
vt 0.603381 0.700747
vt 0.598860 0.685575
vt 0.595015 0.667052
vt 0.591994 0.645888
vt 0.589913 0.622898
vt 0.588852 0.598964
vt 0.588852 0.575007
vt 0.589913 0.551947
vt 0.591994 0.530671
vt 0.595015 0.511995
vt 0.598860 0.496638
vt 0.608405 0.478091
vt 0.613738 0.475613
vt 0.619176 0.477853
vt 0.624509 0.484722
vt 0.629533 0.495959
vt 0.634054 0.511131
vt 0.637899 0.529654
vt 0.643001 0.573808
vt 0.644062 0.597741
vt 0.644062 0.621698
vt 0.643001 0.644758
vt 0.640920 0.666035
vt 0.637899 0.684710
vt 0.634054 0.700067
vt 0.012550 0.468341
vt 0.368826 0.621116
vt 0.374159 0.623593
vt 0.379183 0.630693
vt 0.383704 0.642141
vt 0.387549 0.657498
vt 0.390570 0.676173
vt 0.392651 0.697450
vt 0.393712 0.720510
vt 0.393712 0.744467
vt 0.392651 0.768400
vt 0.390570 0.791390
vt 0.387549 0.812554
vt 0.383704 0.831077
vt 0.379183 0.846249
vt 0.374159 0.857485
vt 0.363389 0.866594
vt 0.358056 0.864117
vt 0.353032 0.857018
vt 0.348511 0.845569
vt 0.344666 0.830213
vt 0.341645 0.811537
vt 0.339564 0.790260
vt 0.338503 0.743244
vt 0.339564 0.719310
vt 0.341645 0.696320
vt 0.344666 0.675156
vt 0.348511 0.656633
vt 0.353032 0.641461
vt 0.358056 0.630225
vt 0.679088 0.013430
vt 0.684422 0.015907
vt 0.689445 0.023007
vt 0.693967 0.034455
vt 0.697811 0.049812
vt 0.700832 0.068487
vt 0.702913 0.089764
vt 0.703974 0.112824
vt 0.703974 0.136781
vt 0.702913 0.160714
vt 0.700832 0.183704
vt 0.697811 0.204868
vt 0.693967 0.223391
vt 0.689445 0.238563
vt 0.684422 0.249799
vt 0.673651 0.258908
vt 0.668318 0.256431
vt 0.663294 0.249331
vt 0.658773 0.237883
vt 0.654928 0.222527
vt 0.651907 0.203851
vt 0.649826 0.182574
vt 0.648765 0.135558
vt 0.649826 0.111624
vt 0.651907 0.088634
vt 0.654928 0.067470
vt 0.658773 0.048947
vt 0.663294 0.033775
vt 0.668318 0.022539
vt 0.857747 0.230830
vt 0.768958 0.793744
vt 0.763520 0.795983
vt 0.758187 0.793505
vt 0.753163 0.786406
vt 0.748642 0.774958
vt 0.744797 0.759601
vt 0.741776 0.740926
vt 0.739695 0.719649
vt 0.738634 0.696589
vt 0.738634 0.672632
vt 0.739695 0.648699
vt 0.741776 0.625708
vt 0.744797 0.604545
vt 0.748642 0.586021
vt 0.753163 0.570850
vt 0.763520 0.552743
vt 0.768958 0.550504
vt 0.774291 0.552982
vt 0.779314 0.560081
vt 0.783836 0.571529
vt 0.787681 0.586886
vt 0.790702 0.605562
vt 0.793843 0.649898
vt 0.793843 0.673855
vt 0.792783 0.697789
vt 0.790702 0.720779
vt 0.787681 0.741942
vt 0.783836 0.760466
vt 0.779315 0.775637
vt 0.857747 0.292465
vt 0.857747 0.533656
vt 0.857747 0.689413
vt 0.011758 0.074758
vt 0.127059 0.512775
s 0
usemtl material.001
f 2/1/1 3/2/1 1/3/1
f 4/4/2 5/5/2 3/2/2
f 6/6/3 7/7/3 5/5/3
f 8/8/4 9/9/4 7/7/4
f 10/10/5 11/11/5 9/9/5
f 11/11/6 14/12/6 13/13/6
f 14/12/7 15/14/7 13/13/7
f 16/15/8 17/16/8 15/14/8
f 18/17/9 19/18/9 17/16/9
f 20/19/10 21/20/10 19/18/10
f 22/21/11 23/22/11 21/20/11
f 24/23/12 25/24/12 23/22/12
f 26/25/13 27/26/13 25/24/13
f 28/27/14 29/28/14 27/26/14
f 30/29/15 31/30/15 29/28/15
f 32/31/16 33/32/16 31/30/16
f 34/33/17 35/34/17 33/32/17
f 36/35/18 37/36/18 35/34/18
f 38/37/19 39/38/19 37/36/19
f 40/39/20 41/40/20 39/38/20
f 42/41/21 43/42/21 41/40/21
f 44/43/22 45/44/22 43/42/22
f 46/45/23 47/46/23 45/44/23
f 48/47/24 49/48/24 47/46/24
f 50/49/25 51/50/25 49/48/25
f 52/51/26 53/52/26 51/50/26
f 54/53/27 55/54/27 53/52/27
f 56/55/28 57/56/28 55/54/28
f 58/57/29 59/58/29 57/56/29
f 60/59/30 61/60/30 59/58/30
f 38/61/31 22/62/31 6/63/31
f 62/64/32 63/65/32 61/60/32
f 64/66/33 1/67/33 63/65/33
f 31/68/34 47/69/34 63/70/34
f 100/71/34 84/72/34 68/73/34
f 67/74/1 66/75/1 65/76/1
f 70/77/33 65/78/33 68/79/33
f 71/80/32 68/79/32 69/81/32
f 95/82/31 111/83/31 127/84/31
f 72/85/30 69/81/30 74/86/30
f 73/87/29 74/86/29 75/88/29
f 76/89/28 73/87/28 75/88/28
f 79/90/27 76/89/27 77/91/27
f 80/92/26 77/91/26 82/93/26
f 81/94/25 82/93/25 83/95/25
f 86/96/24 83/95/24 84/97/24
f 87/98/23 84/97/23 85/99/23
f 88/100/22 85/99/22 90/101/22
f 89/102/21 90/101/21 91/103/21
f 94/104/20 91/103/20 92/105/20
f 95/106/19 92/105/19 93/107/19
f 96/108/18 93/107/18 98/109/18
f 97/110/17 98/109/17 99/111/17
f 102/112/16 99/111/16 100/113/16
f 103/114/15 100/113/15 101/115/15
f 104/116/14 101/115/14 106/117/14
f 107/118/13 104/116/13 106/117/13
f 110/119/12 107/118/12 108/120/12
f 111/121/11 108/120/11 109/122/11
f 112/123/10 109/122/10 114/124/10
f 113/125/9 114/124/9 115/126/9
f 118/127/8 115/126/8 116/128/8
f 117/129/7 118/127/7 116/128/7
f 122/130/6 119/131/6 117/129/6
f 121/132/5 122/130/5 123/133/5
f 126/134/4 123/133/4 124/135/4
f 127/136/3 124/135/3 125/137/3
f 128/138/2 125/137/2 66/75/2
f 130/139/35 132/140/35 129/141/35
f 131/142/36 130/143/36 129/144/36
f 134/145/31 129/146/31 132/140/31
f 135/147/37 132/140/37 133/148/37
f 135/147/38 131/149/38 134/145/38
f 136/150/34 133/148/34 130/143/34
f 2/1/1 4/4/1 3/2/1
f 4/4/2 6/6/2 5/5/2
f 6/6/3 8/8/3 7/7/3
f 8/8/4 10/10/4 9/9/4
f 10/10/5 12/151/5 11/11/5
f 11/11/6 12/151/6 14/12/6
f 14/12/7 16/15/7 15/14/7
f 16/15/8 18/17/8 17/16/8
f 18/17/9 20/19/9 19/18/9
f 20/19/10 22/21/10 21/20/10
f 22/21/11 24/23/11 23/22/11
f 24/23/12 26/25/12 25/24/12
f 26/25/13 28/27/13 27/26/13
f 28/27/14 30/29/14 29/28/14
f 30/29/15 32/31/15 31/30/15
f 32/31/16 34/33/16 33/32/16
f 34/33/17 36/35/17 35/34/17
f 36/35/18 38/37/18 37/36/18
f 38/37/19 40/39/19 39/38/19
f 40/39/20 42/41/20 41/40/20
f 42/41/21 44/43/21 43/42/21
f 44/43/22 46/45/22 45/44/22
f 46/45/23 48/47/23 47/46/23
f 48/47/24 50/49/24 49/48/24
f 50/49/25 52/51/25 51/50/25
f 52/51/26 54/53/26 53/52/26
f 54/53/27 56/55/27 55/54/27
f 56/55/28 58/57/28 57/56/28
f 58/57/29 60/59/29 59/58/29
f 60/59/30 62/64/30 61/60/30
f 6/63/31 4/152/31 2/153/31
f 2/153/31 64/154/31 62/155/31
f 62/155/31 60/156/31 58/157/31
f 58/157/31 56/158/31 54/159/31
f 54/159/31 52/160/31 50/161/31
f 50/161/31 48/162/31 46/163/31
f 46/163/31 44/164/31 42/165/31
f 42/165/31 40/166/31 38/61/31
f 38/61/31 36/167/31 34/168/31
f 34/168/31 32/169/31 30/170/31
f 30/170/31 28/171/31 26/172/31
f 26/172/31 24/173/31 22/62/31
f 22/62/31 20/174/31 18/175/31
f 18/175/31 16/176/31 14/177/31
f 14/177/31 12/178/31 10/179/31
f 10/179/31 8/180/31 6/63/31
f 6/63/31 2/153/31 62/155/31
f 62/155/31 58/157/31 54/159/31
f 54/159/31 50/161/31 46/163/31
f 46/163/31 42/165/31 38/61/31
f 38/61/31 34/168/31 30/170/31
f 30/170/31 26/172/31 22/62/31
f 22/62/31 18/175/31 14/177/31
f 14/177/31 10/179/31 6/63/31
f 6/63/31 62/155/31 54/159/31
f 54/159/31 46/163/31 38/61/31
f 38/61/31 30/170/31 22/62/31
f 22/62/31 14/177/31 6/63/31
f 6/63/31 54/159/31 38/61/31
f 62/64/32 64/66/32 63/65/32
f 64/66/33 2/181/33 1/67/33
f 63/70/34 1/182/34 3/183/34
f 3/183/34 5/184/34 7/185/34
f 7/185/34 9/186/34 11/187/34
f 11/187/34 13/188/34 15/189/34
f 15/189/34 17/190/34 19/191/34
f 19/191/34 21/192/34 23/193/34
f 23/193/34 25/194/34 27/195/34
f 27/195/34 29/196/34 31/68/34
f 31/68/34 33/197/34 35/198/34
f 35/198/34 37/199/34 39/200/34
f 39/200/34 41/201/34 43/202/34
f 43/202/34 45/203/34 47/69/34
f 47/69/34 49/204/34 51/205/34
f 51/205/34 53/206/34 55/207/34
f 55/207/34 57/208/34 59/209/34
f 59/209/34 61/210/34 63/70/34
f 63/70/34 3/183/34 7/185/34
f 7/185/34 11/187/34 15/189/34
f 15/189/34 19/191/34 23/193/34
f 23/193/34 27/195/34 31/68/34
f 31/68/34 35/198/34 39/200/34
f 39/200/34 43/202/34 47/69/34
f 47/69/34 51/205/34 55/207/34
f 55/207/34 59/209/34 63/70/34
f 63/70/34 7/185/34 15/189/34
f 15/189/34 23/193/34 31/68/34
f 31/68/34 39/200/34 47/69/34
f 47/69/34 55/207/34 63/70/34
f 63/70/34 15/189/34 31/68/34
f 68/73/34 65/211/34 66/212/34
f 66/212/34 125/213/34 124/214/34
f 124/214/34 123/215/34 122/216/34
f 122/216/34 117/217/34 116/218/34
f 116/218/34 115/219/34 114/220/34
f 114/220/34 109/221/34 108/222/34
f 108/222/34 107/223/34 106/224/34
f 106/224/34 101/225/34 100/71/34
f 100/71/34 99/226/34 98/227/34
f 98/227/34 93/228/34 92/229/34
f 92/229/34 91/230/34 90/231/34
f 90/231/34 85/232/34 84/72/34
f 84/72/34 83/233/34 82/234/34
f 82/234/34 77/235/34 76/236/34
f 76/236/34 75/237/34 74/238/34
f 74/238/34 69/239/34 68/73/34
f 68/73/34 66/212/34 124/214/34
f 124/214/34 122/216/34 116/218/34
f 116/218/34 114/220/34 108/222/34
f 108/222/34 106/224/34 100/71/34
f 100/71/34 98/227/34 92/229/34
f 92/229/34 90/231/34 84/72/34
f 84/72/34 82/234/34 76/236/34
f 76/236/34 74/238/34 68/73/34
f 68/73/34 124/214/34 116/218/34
f 116/218/34 108/222/34 100/71/34
f 100/71/34 92/229/34 84/72/34
f 84/72/34 76/236/34 68/73/34
f 68/73/34 116/218/34 100/71/34
f 67/74/1 128/138/1 66/75/1
f 70/77/33 67/240/33 65/78/33
f 71/80/32 70/77/32 68/79/32
f 127/84/31 128/241/31 67/242/31
f 67/242/31 70/243/31 71/244/31
f 71/244/31 72/245/31 73/246/31
f 73/246/31 78/247/31 79/248/31
f 79/248/31 80/249/31 81/250/31
f 81/250/31 86/251/31 87/252/31
f 87/252/31 88/253/31 89/254/31
f 89/254/31 94/255/31 95/82/31
f 95/82/31 96/256/31 97/257/31
f 97/257/31 102/258/31 103/259/31
f 103/259/31 104/260/31 105/261/31
f 105/261/31 110/262/31 111/83/31
f 111/83/31 112/263/31 113/264/31
f 113/264/31 118/265/31 119/266/31
f 119/266/31 120/267/31 121/268/31
f 121/268/31 126/269/31 127/84/31
f 127/84/31 67/242/31 71/244/31
f 71/244/31 73/246/31 79/248/31
f 79/248/31 81/250/31 87/252/31
f 87/252/31 89/254/31 95/82/31
f 95/82/31 97/257/31 103/259/31
f 103/259/31 105/261/31 111/83/31
f 111/83/31 113/264/31 119/266/31
f 119/266/31 121/268/31 127/84/31
f 127/84/31 71/244/31 79/248/31
f 79/248/31 87/252/31 95/82/31
f 95/82/31 103/259/31 111/83/31
f 111/83/31 119/266/31 127/84/31
f 127/84/31 79/248/31 95/82/31
f 72/85/30 71/80/30 69/81/30
f 73/87/29 72/85/29 74/86/29
f 76/89/28 78/270/28 73/87/28
f 79/90/27 78/270/27 76/89/27
f 80/92/26 79/90/26 77/91/26
f 81/94/25 80/92/25 82/93/25
f 86/96/24 81/94/24 83/95/24
f 87/98/23 86/96/23 84/97/23
f 88/100/22 87/98/22 85/99/22
f 89/102/21 88/100/21 90/101/21
f 94/104/20 89/102/20 91/103/20
f 95/106/19 94/104/19 92/105/19
f 96/108/18 95/106/18 93/107/18
f 97/110/17 96/108/17 98/109/17
f 102/112/16 97/110/16 99/111/16
f 103/114/15 102/112/15 100/113/15
f 104/116/14 103/114/14 101/115/14
f 107/118/13 105/271/13 104/116/13
f 110/119/12 105/271/12 107/118/12
f 111/121/11 110/119/11 108/120/11
f 112/123/10 111/121/10 109/122/10
f 113/125/9 112/123/9 114/124/9
f 118/127/8 113/125/8 115/126/8
f 117/129/7 119/131/7 118/127/7
f 122/130/6 120/272/6 119/131/6
f 121/132/5 120/272/5 122/130/5
f 126/134/4 121/132/4 123/133/4
f 127/136/3 126/134/3 124/135/3
f 128/138/2 127/136/2 125/137/2
f 130/139/35 133/148/35 132/140/35
f 131/142/36 136/150/36 130/143/36
f 134/145/31 131/273/31 129/146/31
f 135/147/37 134/145/37 132/140/37
f 135/147/38 136/274/38 131/149/38
f 136/150/34 135/147/34 133/148/34
